<?xml version="1.0" standalone="no"?>
<!DOCTYPE svg PUBLIC "-//W3C//DTD SVG 20010904//EN"
 "http://www.w3.org/TR/2001/REC-SVG-20010904/DTD/svg10.dtd">
<svg version="1.0" xmlns="http://www.w3.org/2000/svg"
 width="906.000000pt" height="910.000000pt" viewBox="0 0 906.000000 910.000000"
 preserveAspectRatio="xMidYMid meet">

<g transform="translate(0.000000,910.000000) scale(0.100000,-0.100000)"
fill="#000000" stroke="none">
<path d="M860 8852 c-22 -11 -44 -35 -58 -63 -72 -137 70 -279 207 -207 141
73 89 288 -69 288 -25 0 -61 -8 -80 -18z"/>
<path d="M4030 8711 c-321 -7 -326 -7 -399 -34 -143 -52 -220 -116 -276 -227
-67 -134 -73 -171 -76 -430 -1 -129 -2 -276 -1 -327 l2 -91 31 -11 c73 -25
187 -5 289 51 106 58 100 41 100 282 0 209 0 210 25 247 37 53 108 88 202 98
43 5 287 12 543 16 625 8 748 -2 1017 -89 123 -40 339 -145 448 -218 238 -159
470 -407 619 -661 84 -142 127 -242 185 -423 91 -287 116 -457 108 -727 -5
-158 -10 -205 -42 -356 -45 -215 -60 -259 -146 -436 -155 -318 -363 -577 -620
-771 -196 -148 -376 -242 -608 -318 -242 -79 -252 -80 -946 -81 -335 0 -622 3
-637 8 -39 10 -95 63 -121 111 -22 41 -22 43 -27 794 l-5 754 -24 19 c-14 11
-39 19 -62 19 -32 0 -52 -11 -121 -64 -46 -35 -111 -93 -144 -128 l-62 -64 -7
-104 c-4 -58 -5 -388 -2 -735 5 -689 2 -655 68 -789 46 -94 107 -159 182 -195
136 -64 121 -63 817 -68 694 -5 784 -1 1028 53 218 49 484 153 692 272 81 46
263 175 351 249 99 82 274 271 326 351 19 30 42 61 51 71 31 31 86 114 117
171 17 31 39 70 51 86 24 33 95 178 152 309 119 271 185 601 184 915 -1 368
-99 771 -277 1135 -305 623 -845 1082 -1485 1263 -138 39 -143 40 -270 57
-132 17 -758 26 -1230 16z"/>
<path d="M1175 8418 c-110 -38 -143 -194 -57 -271 11 -10 47 -23 82 -30 l62
-13 18 -52 c64 -182 403 -497 710 -660 307 -164 706 -245 1120 -229 231 10
373 44 735 177 441 162 804 199 1173 119 356 -77 623 -252 807 -528 112 -169
168 -333 187 -544 29 -340 -69 -633 -294 -881 -146 -162 -461 -347 -678 -401
-318 -78 -754 -32 -829 88 -81 131 -286 71 -284 -85 1 -92 64 -151 161 -150
33 0 91 -11 149 -29 169 -52 250 -63 463 -63 229 -1 291 10 505 86 165 59 200
76 323 157 248 163 493 455 597 713 54 135 77 267 78 443 0 166 -8 230 -54
391 -86 306 -283 586 -525 747 -258 172 -535 256 -899 273 -283 14 -621 -52
-1011 -196 -310 -115 -411 -135 -679 -135 -291 1 -520 38 -787 130 -238 82
-472 247 -753 531 l-150 151 20 34 c24 41 25 121 2 166 -19 36 -88 73 -133 72
-16 0 -42 -5 -59 -11z"/>
<path d="M843 7810 c-50 -12 -83 -38 -104 -83 -23 -53 -23 -81 0 -134 68 -148
291 -96 291 67 0 82 -48 136 -140 155 -8 1 -30 -1 -47 -5z"/>
<path d="M1112 7500 c-68 -42 -93 -137 -53 -210 19 -36 88 -80 126 -80 12 0
42 -19 67 -43 117 -113 499 -320 728 -395 136 -45 351 -95 488 -113 170 -23
518 5 757 61 91 21 418 131 635 213 164 61 333 107 495 134 203 33 525 19 728
-33 136 -35 305 -133 398 -231 92 -97 100 -111 94 -157 -7 -49 24 -118 68
-150 40 -29 134 -29 174 0 113 84 73 263 -64 281 -36 5 -44 11 -73 60 -53 86
-118 152 -215 216 -120 79 -203 120 -305 150 -116 35 -179 45 -362 57 -370 23
-616 -23 -1108 -208 -445 -167 -589 -204 -859 -223 -436 -31 -869 89 -1354
375 l-138 81 6 55 c11 103 -55 180 -155 180 -27 0 -58 -8 -78 -20z"/>
<path d="M1010 6853 c-14 -3 -40 -16 -58 -29 -88 -67 -83 -188 10 -258 37 -26
112 -27 159 0 37 21 79 92 79 134 0 40 -42 113 -75 131 -35 20 -80 28 -115 22z"/>
<path d="M4675 6660 c-27 -4 -122 -18 -210 -30 -88 -12 -203 -33 -255 -46
-177 -47 -235 -64 -285 -84 -41 -16 -211 -78 -459 -167 -45 -16 -197 -49 -301
-64 -116 -18 -449 -27 -630 -18 -184 10 -343 38 -622 110 -83 21 -160 39 -171
39 -15 0 -22 11 -31 44 -20 80 -109 128 -193 106 -114 -31 -152 -175 -67 -259
44 -45 98 -56 164 -36 37 12 58 14 71 7 30 -16 263 -90 335 -107 37 -8 145
-27 240 -41 148 -23 207 -27 389 -26 279 0 638 38 782 81 34 11 95 25 133 32
39 6 95 22 125 34 228 95 518 189 645 209 55 9 138 23 185 32 110 21 386 24
450 6 97 -29 251 -95 309 -132 33 -21 96 -73 139 -115 l80 -75 4 -60 c3 -40
11 -70 25 -88 65 -87 192 -86 257 1 16 21 21 43 21 87 0 71 -21 105 -85 137
-23 12 -93 70 -154 128 -150 141 -176 158 -341 220 -171 64 -419 98 -550 75z"/>
<path d="M5150 2810 l0 -60 175 0 174 0 3 -597 c3 -596 3 -598 26 -654 37 -92
73 -133 149 -171 67 -33 70 -33 203 -33 76 0 161 6 194 14 l59 13 -6 60 c-3
33 -7 62 -10 64 -3 3 -39 -2 -81 -10 -193 -40 -316 -2 -370 114 -20 44 -21 61
-24 683 l-3 637 -244 0 -245 0 0 -60z"/>
<path d="M615 2779 c-3 -8 -4 -340 -3 -739 l3 -725 245 0 c273 1 331 10 449
68 225 110 337 394 303 765 -6 70 -21 161 -32 202 -61 217 -196 356 -406 415
-81 24 -551 35 -559 14z m486 -133 c182 -39 294 -155 351 -364 26 -95 31 -359
9 -457 -32 -144 -120 -273 -221 -325 -87 -44 -129 -52 -312 -57 l-178 -5 0
611 0 611 143 0 c83 0 169 -6 208 -14z"/>
<path d="M2165 2429 c-196 -25 -325 -143 -381 -350 -25 -90 -25 -309 -1 -399
55 -204 190 -332 397 -376 59 -13 107 -15 225 -10 83 3 168 10 190 14 l40 8
-3 54 c-2 30 -7 59 -12 64 -5 4 -55 3 -114 -4 -251 -30 -423 18 -520 146 -38
50 -69 124 -81 192 l-7 42 391 0 c297 0 392 3 397 12 14 22 6 213 -10 279 -24
92 -53 147 -110 208 -96 101 -232 142 -401 120z m217 -151 c96 -41 168 -159
171 -283 l2 -60 -323 -3 c-274 -2 -323 0 -328 12 -17 45 42 199 101 264 84 94
248 124 377 70z"/>
<path d="M3310 2429 c-197 -22 -336 -154 -386 -365 -22 -94 -22 -287 0 -374
54 -210 188 -342 391 -385 84 -18 268 -18 380 -2 l80 12 -3 59 c-1 33 -5 62
-7 64 -2 3 -44 0 -93 -7 -243 -31 -405 4 -511 110 -53 53 -99 147 -108 218
l-6 51 386 0 386 0 12 22 c16 29 5 215 -17 288 -68 230 -245 338 -504 309z
m215 -153 c103 -47 167 -150 169 -276 l1 -65 -325 0 -325 0 3 35 c6 68 42 165
79 214 88 114 260 153 398 92z"/>
<path d="M4495 2429 c-123 -18 -217 -90 -252 -193 -15 -46 -17 -49 -24 -26 -4
14 -8 48 -8 75 -1 28 -4 67 -7 88 l-7 37 -58 0 -59 0 0 -790 0 -790 70 0 70 0
0 355 c0 325 7 414 24 321 9 -48 62 -122 111 -156 117 -81 341 -80 468 2 143
92 204 261 194 542 -6 200 -36 304 -117 406 -81 102 -238 152 -405 129z m193
-149 c127 -56 192 -199 192 -419 -1 -238 -71 -380 -213 -427 -79 -26 -207 -16
-276 21 -68 38 -114 98 -143 190 -19 59 -23 93 -23 215 0 123 3 156 23 217 50
161 163 239 330 228 34 -2 84 -14 110 -25z"/>
<path d="M6450 2409 c-5 -8 -10 -37 -12 -65 l-3 -49 170 -6 c219 -7 281 -24
358 -97 45 -43 77 -135 77 -218 l0 -55 -52 8 c-98 15 -347 8 -417 -11 -130
-35 -210 -96 -252 -191 -18 -39 -23 -70 -23 -136 -1 -76 2 -92 29 -144 21 -41
44 -68 78 -91 71 -49 116 -59 252 -58 132 1 190 16 278 75 48 31 107 109 107
140 0 10 4 20 9 23 5 4 12 -47 16 -115 l8 -122 140 7 c77 3 143 9 148 12 5 3
9 25 9 49 0 47 -9 55 -64 55 -18 0 -54 3 -80 6 l-46 7 0 271 c0 350 -10 423
-72 526 -44 72 -114 124 -213 156 -69 23 -104 27 -259 33 -155 5 -179 4 -186
-10z m583 -606 c4 -2 7 -37 7 -76 0 -89 -28 -155 -90 -211 -115 -103 -333
-135 -447 -65 -89 55 -97 205 -16 284 68 66 168 86 393 78 80 -3 148 -7 153
-10z"/>
<path d="M8318 2407 c-7 -8 -89 -228 -183 -490 -93 -263 -174 -476 -180 -474
-5 2 -99 220 -209 485 l-200 482 -73 0 c-40 0 -73 -3 -73 -7 0 -5 103 -251
229 -548 191 -449 233 -541 250 -543 27 -4 26 -12 -3 -70 -37 -73 -110 -164
-160 -200 -76 -55 -129 -74 -269 -97 l-38 -6 3 -62 3 -62 50 3 c261 16 416
137 555 434 56 121 442 1147 435 1159 -10 14 -122 11 -137 -4z"/>
</g>
</svg>
